HIERARCHY
ROOT hip
{
	OFFSET 0.000000 0.000000 0.000000 
	CHANNELS 6 Xposition Yposition Zposition Xrotation Zrotation Yrotation
	JOINT abdomen
	{
		OFFSET 0.000000 3.402643 0.000000 
		CHANNELS 3 Xrotation Zrotation Yrotation
		JOINT chest
		{
			OFFSET 0.000000 8.438565 -0.680529 
			CHANNELS 3 Xrotation Zrotation Yrotation
			JOINT neck
			{
				OFFSET 0.000000 10.207942 -0.272212 
				CHANNELS 3 Xrotation Zrotation Yrotation
				JOINT head
				{
					OFFSET 0.000000 3.130431 0.000000 
					CHANNELS 3 Xrotation Zrotation Yrotation
					End Site
					{
						OFFSET 0.000000 3.130435 0.000000 
					}
				}
			}
			JOINT lCollar
			{
				OFFSET 3.470700 6.669187 -0.816635 
				CHANNELS 3 Yrotation Zrotation Xrotation
				JOINT lShldr
				{
					OFFSET 3.198488 0.000000 0.000000 
					CHANNELS 3 Zrotation Yrotation Xrotation
					JOINT lForeArm
					{
						OFFSET 10.139888 0.000000 0.000000 
						CHANNELS 3 Yrotation Zrotation Xrotation
						JOINT lHand
						{
							OFFSET 8.370511 0.000000 0.000000 
							CHANNELS 3 Zrotation Yrotation Xrotation
							End Site
							{
								OFFSET 4.083176 0.000000 0.000000 
							}
						}
					}
				}
			}
			JOINT rCollar
			{
				OFFSET -3.470700 6.669187 -0.816635 
				CHANNELS 3 Yrotation Zrotation Xrotation
				JOINT rShldr
				{
					OFFSET -3.198488 0.000000 0.000000 
					CHANNELS 3 Zrotation Yrotation Xrotation
					JOINT rForeArm
					{
						OFFSET -10.139888 0.000000 0.000000 
						CHANNELS 3 Yrotation Zrotation Xrotation
						JOINT rHand
						{
							OFFSET -8.370511 0.000000 0.000000 
							CHANNELS 3 Zrotation Yrotation Xrotation
							End Site
							{
								OFFSET -4.083176 0.000000 0.000000 
							}
						}
					}
				}
			}
		}
	}
	JOINT lThigh
	{
		OFFSET 5.308129 -1.633274 1.361059 
		CHANNELS 3 Xrotation Zrotation Yrotation
		JOINT lShin
		{
			OFFSET -2.041588 -20.007561 0.000000 
			CHANNELS 3 Xrotation Zrotation Yrotation
			JOINT lFoot
			{
				OFFSET 0.000000 -19.190928 -1.224953 
				CHANNELS 3 Xrotation Yrotation Zrotation
				End Site
				{
					OFFSET 0.000000 -2.449906 4.627600 
				}
			}
		}
	}
	JOINT rThigh
	{
		OFFSET -5.308129 -1.633274 1.361059 
		CHANNELS 3 Xrotation Zrotation Yrotation
		JOINT rShin
		{
			OFFSET 2.041588 -20.007561 0.000000 
			CHANNELS 3 Xrotation Zrotation Yrotation
			JOINT rFoot
			{
				OFFSET 0.000000 -19.190928 -1.224953 
				CHANNELS 3 Xrotation Yrotation Zrotation
				End Site
				{
					OFFSET 0.000000 -2.449906 4.627600 
				}
			}
		}
	}
}
MOTION
Frames: 8
Frame Time: 0.033333
-0.582486 48.958050 0.251250 1.013680 -1.968049 -3.918397 0.000000 0.000000 0.000000 -1.283146 -1.200656 -1.680137 5.691003 -3.071747 -8.459635 11.533118 20.201141 -10.829705 0.212079 -4.621245 -0.519038 -48.789520 -0.209661 -7.696038 -20.832739 -1.067021 19.939119 -11.018976 1.755301 -3.313888 -3.341429 5.051058 -0.538400 39.862133 0.617100 -9.028706 23.678627 2.153344 18.578485 -12.501762 0.817884 -3.900932 -2.548105 7.496547 3.832856 13.422646 -3.310845 16.823765 -10.245055 0.483988 -5.322113 2.978389 -11.591569 -9.003409 2.231041 3.193664 0.274976 -0.776412 -0.064739 10.756595 
-0.184616 48.866009 0.137762 0.727505 -2.539349 -4.946494 0.000000 0.000000 0.000000 -0.465029 -1.063941 -1.777763 6.071282 -3.168220 -9.575482 13.707996 20.788837 -11.561920 -0.418970 -5.704661 0.206969 -54.223511 0.861275 -4.460917 -24.096672 -1.949571 22.337431 -12.440564 1.863287 -3.307965 -3.390351 5.641631 0.215351 45.873554 -1.047593 -5.220153 27.029360 3.023530 19.221987 -9.693856 -1.426774 -3.639714 -3.308660 7.709430 4.109145 15.755392 -3.379303 17.432798 -11.523450 0.560729 -5.323489 -1.045246 -12.041203 -8.207820 9.881940 3.073479 2.262672 -2.311811 -0.192207 11.064489 
0.153001 48.848007 -0.010486 0.778837 -2.931839 -6.229012 0.000000 0.000000 0.000000 0.239532 -1.122518 -1.758241 6.302620 -3.265803 -10.408055 14.620717 20.755558 -12.175348 -0.351794 -6.470851 0.864885 -59.611774 0.696195 -0.723807 -26.982006 -3.031276 23.978012 -12.255692 4.563535 -3.636237 -3.976797 6.325189 0.901631 51.296116 -1.550114 -1.949287 28.919783 3.522564 20.902670 -6.512675 -2.973034 -3.520171 -3.737008 7.746231 4.297899 16.585268 -3.463847 18.513859 -11.946996 0.569406 -5.183481 -5.019085 -12.409402 -7.513614 16.117176 2.987308 3.690797 -1.985898 -0.176073 11.133016 
0.457626 48.836212 -0.131780 0.663847 -3.262903 -7.502479 0.000000 0.000000 0.000000 0.967081 -1.171214 -1.924424 7.063098 -3.633367 -10.999403 14.530985 21.402395 -12.895069 -0.590069 -6.931817 1.505507 -65.055473 0.758227 2.722292 -30.005489 -3.889329 23.497910 -10.436651 7.147980 -3.899318 -4.130095 6.112479 1.537322 57.064701 -2.515887 1.163352 28.698782 4.258424 23.854527 -5.747127 -2.255886 -3.549923 -3.913911 7.710076 4.405389 17.199724 -3.502387 19.732601 -12.176248 0.556224 -5.116964 -8.766198 -12.572053 -6.648413 22.198189 2.616501 4.828522 -0.617312 -0.050619 11.226830 
0.707016 48.880459 -0.193158 0.331419 -3.895669 -9.113074 0.000000 0.000000 0.000000 1.891817 -1.014975 -2.051151 7.529262 -3.582194 -11.262528 14.716225 21.011986 -12.986284 -0.753250 -6.696235 2.339968 -70.372047 0.139274 6.303025 -32.414345 -4.664562 23.346701 -7.825579 8.554046 -3.925399 -4.333626 6.856483 2.402932 61.337135 -3.487293 3.417187 28.731287 5.158127 25.126186 -3.567971 -2.543765 -3.527369 -3.307577 7.852542 4.625644 17.122110 -3.359479 21.241234 -12.194983 0.566820 -5.144460 -12.419922 -12.370665 -5.884365 27.850077 2.509682 6.557475 2.481195 0.233192 10.852144 
0.758022 48.860249 -0.086376 -0.280619 -4.305283 -13.320063 0.000000 0.000000 0.000000 2.721059 -1.249898 -0.732674 7.674102 -4.057644 -10.084254 15.169462 20.485289 -12.854680 0.564657 -7.059818 3.158938 -73.889572 -0.508868 11.060164 -36.296677 -5.508967 28.657234 -2.835930 9.043388 -3.717334 -3.583448 7.203754 3.222522 64.625389 -4.970860 6.554647 29.658583 6.367733 25.688726 -0.794790 -3.453841 -3.501112 -1.376892 8.094144 5.829503 17.134731 -3.907996 24.296045 -12.901636 0.666011 -5.702442 -16.138084 -11.275817 -4.105767 32.727295 1.797248 8.057851 5.969693 0.552443 10.189820 
0.701845 48.884010 -0.053291 -0.699584 -4.727602 -16.189911 0.000000 0.000000 0.000000 3.373163 -1.474604 -0.156450 8.069858 -4.459705 -9.502181 15.424563 20.339869 -12.748737 0.701874 -6.716768 3.736727 -74.444092 -2.371488 13.947902 -39.011139 -4.809071 44.536751 -10.126677 7.028868 -3.865947 -3.284077 6.691796 3.819916 68.613625 -6.392140 8.605583 29.125149 7.155725 25.314646 1.885970 -6.039039 -3.589818 0.350478 8.303765 6.595966 16.548967 -4.189973 26.341663 -13.088796 0.705541 -6.143120 -18.716259 -9.948747 -3.186127 35.775467 1.689693 7.491069 9.490544 0.816446 9.394813 
0.738363 48.881363 -0.019610 -0.751857 -5.148919 -17.603500 0.000000 0.000000 0.000000 3.882907 -1.298733 -0.693624 8.211921 -4.574368 -9.571868 15.685401 19.948036 -12.329826 0.131196 -6.384213 4.167052 -70.852837 -5.963843 19.968180 -39.870968 -7.247263 46.905388 -7.970715 -1.069919 -3.123880 -3.708257 6.678006 4.259784 71.318382 -8.328470 9.445189 30.249241 7.008562 29.162783 8.634605 -5.287597 -3.681677 0.624022 8.333819 6.569811 16.791615 -3.856630 27.823257 -13.158998 0.795748 -6.610789 -19.646885 -9.540429 -3.761115 35.438370 2.832036 9.430191 10.848039 0.732728 7.488174 
